<svg width="26" height="25" viewBox="0 0 26 25" fill="none" xmlns="http://www.w3.org/2000/svg">
<g clip-path="url(#clip0_2_19)">
<path d="M10.1181 0C7.52757 0 4.93961 0.961404 2.96481 2.88246C-0.988319 6.72797 -0.988222 12.9552 2.96481 16.8008C6.57834 20.3158 12.2641 20.6111 16.2681 17.6116L23.4979 24.6447C23.9846 25.1182 24.769 25.1187 25.2561 24.6447L25.635 24.2743C26.1217 23.8009 26.1216 23.0382 25.635 22.5648L18.3623 15.489C21.1801 11.5964 20.7675 6.2839 17.2713 2.88246C15.2965 0.961404 12.7086 0 10.1181 0ZM10.1181 2.72993C11.9877 2.72993 13.8591 3.42325 15.2873 4.81256C18.1403 7.58791 18.1411 12.0954 15.2882 14.8707C12.4353 17.6462 7.80089 17.6462 4.94796 14.8707C2.09505 12.0953 2.09498 7.58787 4.94796 4.81256C6.37607 3.42333 8.24848 2.72993 10.1181 2.72993Z" fill="white"/>
</g>
<defs>
<clipPath id="clip0_2_19">
<rect width="26" height="25" fill="white"/>
</clipPath>
</defs>
</svg>
